#N canvas 648 178 756 525 12;
#X obj 164 -4 tgl 19 0 empty empty empty 0 -10 0 12 #fcfcfc #000000 #000000 0 1;
#X obj 164 66 f 0;
#X obj 200 66 + 1;
#X obj 443 50 loadbang;
#X obj 443 102 array set score;
#N canvas 0 22 450 278 (subpatch) 0;
#X array score 12 float 3;
#A 0 1 1 1 0 1 1 0 1 0 1 1 0;
#X coords 0 2 12 -1 200 40 1 0 0;
#X restore 443 137 graph;
#X obj 92 315 *~;
#X obj 110 206 sel 1;
#X msg 443 76 1 1 1 0 1 1 0 1 0 1 1 0;
#X obj 110 181 array get score 0 1;
#X obj 270 324 *~;
#X obj 288 236 sel 1;
#X obj 288 211 array get score 0 1;
#X obj 306 122 div 96;
#X obj 288 157 + 0;
#X obj 164 101 mod 12;
#X obj 288 184 mod 12;
#X msg 278 4 0;
#X obj 209 288 osc~ 280;
#X obj 139 397 output~;
#X obj 164 31 metro 180;
#X obj 110 273 vline~;
#X obj 288 288 vline~;
#X obj 39 273 osc~ 220;
#X msg 110 231 0.5 5 \, 0 10 50;
#X msg 288 263 0.5 5 \, 0 10 50;
#X text 98 -3 start:;
#X text 227 6 reset:;
#X connect 0 0 20 0;
#X connect 1 0 2 0;
#X connect 1 0 13 0;
#X connect 1 0 15 0;
#X connect 2 0 1 1;
#X connect 3 0 8 0;
#X connect 6 0 19 0;
#X connect 7 0 24 0;
#X connect 8 0 4 0;
#X connect 9 0 7 0;
#X connect 10 0 19 1;
#X connect 11 0 25 0;
#X connect 12 0 11 0;
#X connect 13 0 14 1;
#X connect 14 0 16 0;
#X connect 15 0 9 0;
#X connect 15 0 14 0;
#X connect 16 0 12 0;
#X connect 17 0 1 1;
#X connect 18 0 10 0;
#X connect 20 0 1 0;
#X connect 21 0 6 1;
#X connect 22 0 10 1;
#X connect 23 0 6 0;
#X connect 24 0 21 0;
#X connect 25 0 22 0;
